<?xml version="1.0" standalone="no"?>
<!DOCTYPE svg PUBLIC "-//W3C//DTD SVG 20010904//EN"
 "http://www.w3.org/TR/2001/REC-SVG-20010904/DTD/svg10.dtd">
<svg version="1.0"
    xmlns="http://www.w3.org/2000/svg" width="512.000000pt" height="512.000000pt" viewBox="0 0 512.000000 512.000000" preserveAspectRatio="xMidYMid meet">

    <g transform="translate(0.000000,512.000000) scale(0.100000,-0.100000)" fill="#000000" stroke="none">
        <path d="M915 4781 c-51 -23 -101 -79 -114 -128 -15 -53 -15 -2933 0 -2986 13
-49 63 -105 114 -128 32 -15 66 -19 178 -19 l137 0 0 -507 c0 -327 4 -522 11
-546 14 -52 71 -112 123 -132 34 -13 70 -16 162 -13 140 4 181 19 229 87 l30
43 3 533 3 534 147 3 c171 4 206 16 257 87 l30 43 0 1507 0 1507 -28 43 c-20
29 -44 50 -80 67 l-52 24 -555 0 c-515 0 -558 -2 -595 -19z m1175 -76 c64 -33
60 71 60 -1545 0 -1616 4 -1512 -60 -1545 -25 -13 -108 -15 -585 -15 l-555 0
-38 34 -37 34 0 1492 0 1492 37 34 38 34 555 0 c477 0 560 -2 585 -15z m-380
-3700 c0 -566 1 -559 -60 -590 -21 -11 -61 -15 -145 -15 l-115 0 -38 34 -37
34 -3 526 -3 526 201 0 200 0 0 -515z"/>
        <path d="M1419 4467 c-159 -45 -262 -182 -262 -347 0 -143 72 -259 201 -322
60 -30 75 -33 152 -33 110 1 186 33 260 111 75 79 94 128 94 244 0 116 -19
165 -94 244 -88 94 -234 136 -351 103z"/>
        <path d="M1419 3507 c-159 -45 -262 -182 -262 -347 0 -143 72 -259 201 -322
60 -30 75 -33 152 -33 110 1 186 33 260 111 75 79 94 128 94 244 0 116 -19
165 -94 244 -88 94 -234 136 -351 103z m184 -83 c57 -19 131 -83 160 -138 31
-59 31 -193 0 -252 -33 -61 -106 -121 -171 -140 -243 -71 -448 191 -319 407
68 114 205 166 330 123z"/>
        <path d="M1640 3181 c-5 -11 -10 -27 -10 -36 0 -47 -63 -105 -114 -105 -33 0
-51 -31 -35 -61 10 -19 17 -21 56 -15 25 3 61 16 80 27 89 55 127 209 52 209
-10 0 -23 -9 -29 -19z"/>
        <path d="M1419 2547 c-159 -45 -262 -182 -262 -347 0 -143 72 -259 201 -322
60 -30 75 -33 152 -33 110 1 186 33 260 111 75 79 94 128 94 244 0 116 -19
165 -94 244 -88 94 -234 136 -351 103z m214 -98 c58 -29 94 -65 125 -124 38
-72 38 -178 0 -251 -98 -188 -364 -202 -477 -25 -124 193 24 445 252 426 31
-3 76 -14 100 -26z"/>
        <path d="M1643 2228 c-6 -7 -13 -29 -17 -49 -8 -45 -50 -86 -100 -96 -46 -10
-66 -34 -50 -60 35 -57 169 -2 214 88 25 47 27 114 4 123 -24 9 -41 7 -51 -6z"/>
        <path d="M322 4460 c-19 -11 -40 -37 -49 -57 -27 -67 -13 -89 195 -295 103
-104 195 -188 203 -188 19 0 39 20 39 40 0 8 -83 98 -185 200 -102 102 -185
192 -185 201 0 33 25 38 190 41 142 3 164 5 174 21 8 12 8 22 0 35 -10 15 -32
17 -180 20 -155 2 -172 0 -202 -18z"/>
        <path d="M2326 4465 c-20 -20 -20 -29 0 -49 13 -13 43 -16 173 -16 160 0 181
-5 181 -39 0 -9 -83 -99 -185 -201 -102 -103 -185 -191 -185 -197 0 -15 28
-43 44 -43 6 0 98 87 203 193 205 207 217 224 190 288 -30 70 -40 74 -232 77
-149 3 -175 1 -189 -13z"/>
        <path d="M328 3504 c-53 -28 -73 -106 -44 -162 20 -38 369 -382 387 -382 20 0
39 20 39 40 0 8 -79 94 -176 190 -96 96 -180 183 -185 193 -6 11 -6 24 1 37
10 18 23 20 177 22 145 3 167 5 177 21 8 12 8 22 0 35 -10 15 -32 17 -180 19
-134 2 -175 -1 -196 -13z"/>
        <path d="M2326 3505 c-20 -20 -20 -29 0 -49 13 -13 43 -16 173 -16 160 0 181
-5 181 -39 0 -9 -83 -99 -185 -201 -102 -103 -185 -191 -185 -197 0 -15 28
-43 44 -43 6 0 98 87 203 193 205 207 217 224 190 288 -30 70 -40 74 -232 77
-149 3 -175 1 -189 -13z"/>
        <path d="M3196 3398 c-7 -18 -21 -55 -30 -81 -20 -55 -44 -73 -129 -103 -104
-35 -103 -73 1 -108 88 -30 109 -50 140 -136 40 -110 74 -109 112 4 25 77 50
101 131 131 35 12 68 30 74 39 16 26 -5 46 -74 71 -79 29 -106 54 -127 119
-22 69 -40 96 -65 96 -13 0 -24 -11 -33 -32z m82 -188 l49 -50 -50 -50 c-28
-28 -51 -49 -52 -48 -21 38 -40 60 -65 74 -16 10 -30 21 -30 24 0 3 16 15 35
28 20 12 41 34 47 47 6 14 13 25 15 25 1 0 25 -23 51 -50z"/>
        <path d="M328 2544 c-53 -28 -73 -106 -44 -162 20 -38 369 -382 387 -382 20 0
39 20 39 40 0 8 -79 94 -176 190 -96 96 -180 183 -185 193 -6 11 -6 24 1 37
10 18 23 20 177 22 145 3 167 5 177 21 8 12 8 22 0 35 -10 15 -32 17 -180 19
-134 2 -175 -1 -196 -13z"/>
        <path d="M2326 2545 c-20 -20 -20 -29 0 -49 13 -13 43 -16 173 -16 160 0 181
-5 181 -39 0 -9 -83 -99 -185 -201 -102 -103 -185 -191 -185 -197 0 -15 28
-43 44 -43 6 0 98 87 203 193 205 207 217 224 190 288 -30 70 -40 74 -232 77
-149 3 -175 1 -189 -13z"/>
        <path d="M4018 2300 c-175 -32 -359 -124 -468 -235 -37 -37 -43 -48 -34 -63
20 -31 52 -26 97 15 307 282 790 288 1112 14 62 -53 84 -61 105 -36 20 24 2
50 -78 115 -88 70 -222 139 -332 171 -83 23 -316 35 -402 19z"/>
        <path d="M4017 1970 c-85 -25 -125 -46 -205 -104 -53 -39 -63 -51 -60 -73 6
-51 28 -49 105 8 99 74 174 102 292 107 150 7 241 -21 358 -110 72 -54 95 -55
101 -6 2 19 -7 33 -40 60 -115 93 -212 128 -368 134 -94 3 -127 0 -183 -16z"/>
        <path d="M4053 1641 c-122 -62 -180 -198 -143 -333 14 -49 66 -117 113 -147
l37 -24 0 -157 c0 -168 6 -189 50 -175 19 6 20 14 20 156 l0 149 45 0 45 0 0
-144 c0 -154 7 -175 50 -161 19 6 20 14 20 164 l0 157 56 49 c74 63 104 126
103 215 0 78 -15 125 -59 179 -51 65 -109 94 -199 99 -70 3 -81 1 -138 -27z"/>
        <path d="M764 1102 c-122 -58 -116 -239 10 -287 75 -29 140 -9 190 59 29 39
29 133 0 172 -51 69 -126 90 -200 56z m121 -87 c63 -62 -6 -161 -90 -129 -25
10 -47 62 -40 95 13 59 86 79 130 34z"/>
        <path d="M1966 1064 c-9 -8 -16 -19 -16 -24 0 -5 7 -16 16 -24 14 -14 100 -16
794 -16 428 0 785 3 794 6 21 8 21 60 0 68 -9 3 -366 6 -794 6 -694 0 -780 -2
-794 -16z"/>
        <path d="M3672 1068 c-7 -7 -12 -19 -12 -28 0 -27 22 -40 71 -40 65 0 79 7 79
40 0 16 -7 30 -16 34 -27 10 -110 6 -122 -6z"/>
        <path d="M1966 905 c-9 -9 -16 -20 -16 -25 0 -26 34 -41 88 -38 62 3 86 24 66
56 -16 24 -115 29 -138 7z"/>
        <path d="M2206 904 c-9 -8 -16 -19 -16 -24 0 -5 7 -16 16 -24 14 -14 100 -16
794 -16 428 0 785 3 794 6 21 8 21 60 0 68 -9 3 -366 6 -794 6 -694 0 -780 -2
-794 -16z"/>
        <path d="M3637 710 c-156 -48 -185 -260 -49 -355 l44 -30 541 0 c524 0 543 1
576 20 19 11 48 37 65 58 29 36 31 44 31 117 0 73 -2 81 -31 117 -17 21 -46
47 -65 58 -33 19 -54 20 -559 22 -289 1 -538 -2 -553 -7z m1097 -99 c55 -52
55 -130 0 -182 l-26 -24 -516 -3 c-375 -2 -524 1 -545 9 -43 18 -67 55 -67
106 0 55 12 78 53 104 31 19 51 19 554 17 l521 -3 26 -24z"/>
    </g>
</svg>
